<svg width="420" height="260" viewBox="0 0 420 260" fill="none" xmlns="http://www.w3.org/2000/svg">
  <rect width="420" height="260" rx="28" fill="#FFF6EA"/>
  <rect x="28" y="28" width="364" height="204" rx="22" fill="#ffffff" stroke="#E7D9C4" stroke-width="2"/>
  <circle cx="106" cy="102" r="36" fill="#DBEAFE"/>
  <path d="M106 78C94.954 78 86 86.954 86 98V122H126V98C126 86.954 117.046 78 106 78Z" fill="#1D4ED8"/>
  <rect x="76" y="138" width="60" height="20" rx="10" fill="#F97316"/>
  <rect x="166" y="72" width="170" height="18" rx="9" fill="#E2E8F0"/>
  <rect x="166" y="104" width="142" height="14" rx="7" fill="#E2E8F0"/>
  <rect x="166" y="130" width="154" height="14" rx="7" fill="#E2E8F0"/>
  <rect x="166" y="156" width="120" height="14" rx="7" fill="#E2E8F0"/>
  <path d="M113 183C127.359 183 139 171.359 139 157H113V183Z" fill="#0F172A" opacity="0.12"/>
  <circle cx="95" cy="183" r="22" fill="#FED7AA"/>
  <rect x="196" y="186" width="128" height="22" rx="11" fill="#DBEAFE"/>
</svg>
